<svg xmlns="http://www.w3.org/2000/svg" width="600" height="80" viewBox="0 0 600 80">
  <defs>
    <linearGradient id="bg" x1="100%" y1="0%" x2="0%" y2="0%">
      <stop offset="0%" stop-color="#0ea5e9"/>
      <stop offset="100%" stop-color="#0284c7"/>
    </linearGradient>
  </defs>

  <!-- Background -->
  <rect width="600" height="80" rx="8" fill="url(#bg)"/>

  <!-- Robot logo (simplified) -->
  <g transform="translate(20, 14) scale(1.2)">
    <rect width="44" height="44" rx="8" fill="rgba(255,255,255,0.2)"/>
    <g transform="translate(5.5 5.5) scale(1.375)">
      <path d="M7.695 3.057a1.04 1.04 0 0 0-.567.459c-.091.156-.108.23-.108.484 0 .256.016.328.111.489.061.103.173.236.25.294.273.208.319.213 2.029.215L11 5v1.996l-2.77.013-2.77.013-.321.1A3.107 3.107 0 0 0 3.116 9.14c-.09.273-.093.327-.107 2.07L2.995 13h-.551c-.796 0-1.078.111-1.316.516-.091.156-.108.23-.108.484 0 .256.016.328.111.489.125.213.318.375.539.454.098.035.352.054.737.055l.588.002.014 1.79c.014 1.743.017 1.797.107 2.07a3.106 3.106 0 0 0 2.044 2.026l.3.094h13.08l.3-.094a3.106 3.106 0 0 0 2.044-2.026c.09-.273.093-.327.107-2.07l.014-1.79.588-.002c.385-.001.639-.02.737-.055.221-.079.414-.241.539-.454.095-.161.111-.233.111-.489 0-.254-.017-.328-.108-.484-.238-.405-.52-.516-1.316-.516h-.551l-.014-1.79c-.014-1.743-.017-1.797-.107-2.07a3.107 3.107 0 0 0-2.023-2.018l-.321-.1-2.768-.013-2.769-.013-.011-1.648L12.98 3.7l-.108-.184a1.02 1.02 0 0 0-.582-.461c-.257-.077-4.347-.076-4.595.002M18.31 9.061c.279.083.546.35.629.629.053.177.061.751.061 4.311 0 4.457.007 4.318-.221 4.617-.061.08-.194.195-.295.254l-.184.108H5.7l-.184-.108a1.051 1.051 0 0 1-.458-.556c-.089-.254-.087-8.324.003-8.626.079-.269.351-.547.612-.627.29-.089 12.337-.091 12.637-.002m-9.615 2.996a1.04 1.04 0 0 0-.567.459l-.108.184v2.606l.121.197a.998.998 0 0 0 1.718 0l.121-.197V12.7l-.108-.184a1.005 1.005 0 0 0-1.177-.459m6 0a1.04 1.04 0 0 0-.567.459l-.108.184v2.606l.121.197a.998.998 0 0 0 1.718 0l.121-.197V12.7l-.108-.184a1.005 1.005 0 0 0-1.177-.459" fill-rule="evenodd" fill="#ffffff"/>
    </g>
  </g>

  <!-- Text -->
  <text x="90" y="35" font-family="system-ui, -apple-system, sans-serif" font-size="16" font-weight="600" fill="white">Works great with Sidekick for InDesign</text>
  <text x="90" y="55" font-family="system-ui, -apple-system, sans-serif" font-size="13" fill="rgba(255,255,255,0.85)">Render math formulas directly in your InDesign layouts</text>

  <!-- Arrow -->
  <g transform="translate(555, 32)">
    <path d="M0 8h20M14 2l8 6-8 6" stroke="white" stroke-width="2" fill="none" stroke-linecap="round" stroke-linejoin="round"/>
  </g>
</svg>
